<?xml version="1.0" encoding="utf-8"?>
<!-- Generator: Adobe Illustrator 24.0.3, SVG Export Plug-In . SVG Version: 6.00 Build 0)  -->
<svg version="1.1" id="Layer_1" xmlns="http://www.w3.org/2000/svg" xmlns:xlink="http://www.w3.org/1999/xlink" x="0px" y="0px"
	 width="120px" height="32.2px" viewBox="0 0 120 32.2" enable-background="new 0 0 120 32.2"
	 xml:space="preserve">
<g>
	<path fill="#FFFFFF" d="M15.7,17.9c-2,0-3.6,0.8-4.7,2.4c-0.8-1.5-2.3-2.4-4-2.4c-1.6-0.1-3.1,0.6-4.1,1.9v-0.3c0-0.8-0.7-1.4-1.5-1.5
		c-0.8,0-1.4,0.7-1.4,1.5v11.1C0,31.4,0.7,32,1.5,32c0.8,0,1.4-0.6,1.4-1.4v-7.6c0.7-1.1,1.6-2.3,3.4-2.3c1.7,0,2.4,0.8,2.4,3v7
		c0,0.8,0.7,1.4,1.5,1.4c0.8,0,1.4-0.6,1.4-1.4v-7.7c0.7-1.1,1.6-2.3,3.4-2.3c1.7,0,2.4,0.8,2.4,3v7c0,0.8,0.7,1.4,1.5,1.4
		c0.8,0,1.4-0.6,1.4-1.4v-7.4C20.3,20.6,18.9,17.9,15.7,17.9L15.7,17.9z"/>
	<path fill="#FFFFFF" d="M29.5,17.9c-1.6,0-3.1,0.3-4.6,0.9c-0.5,0.2-0.9,0.7-0.8,1.2c0,0.7,0.5,1.2,1.2,1.3c0,0,0,0,0,0
		c0.1,0,0.3,0,0.4-0.1c1.1-0.4,2.2-0.6,3.3-0.6c2.2,0,3.2,0.8,3.2,2.9h-2.8c-3.9,0-6.2,1.7-6.2,4.5c0,2.7,2.3,4.1,4.5,4.1
		c1.7,0,3.3-0.5,4.6-1.6v0c0,0.8,0.7,1.4,1.5,1.4c0.8,0,1.4-0.6,1.4-1.4v-7.3C35.2,20.6,33.4,17.9,29.5,17.9L29.5,17.9z M28.6,29.5
		c-1.6,0-2.5-0.6-2.5-1.8c0-0.4,0-1.8,3.6-1.8h2.6v1.8C31.5,28.6,30.1,29.5,28.6,29.5L28.6,29.5z"/>
	<path fill="#FFFFFF" d="M40.7,12.8h0.2c0.9,0,1.6,0.7,1.6,1.6v0.1c0,0.9-0.7,1.6-1.6,1.6h-0.2c-0.9,0-1.6-0.7-1.6-1.6v-0.1
		C39.1,13.5,39.8,12.8,40.7,12.8z"/>
	<g transform="translate(-78.29 -365.78)">
		<path fill="#FFFFFF" d="M119,383.9c-0.8,0-1.4,0.6-1.4,1.4c0,0,0,0,0,0v11.1c0,0.8,0.7,1.4,1.5,1.4c0.8,0,1.4-0.6,1.4-1.4v-11.1
			C120.5,384.5,119.8,383.9,119,383.9C119,383.9,119,383.9,119,383.9z"/>
		<path fill="#FFFFFF" d="M126.4,378.2c-0.8,0-1.4,0.6-1.4,1.4c0,0,0,0,0,0v16.7c0,0.8,0.7,1.4,1.5,1.4c0.8,0,1.4-0.6,1.4-1.4v-16.7
			C127.8,378.8,127.2,378.2,126.4,378.2C126.4,378.2,126.4,378.2,126.4,378.2z"/>
		<path fill="#FFFFFF" d="M137.8,383.7c-2.1,0-3.8,0.8-4.9,2.2c-1,1.3-1.5,3-1.5,4.9c0,4.5,2.6,7.1,7,7.1c2.4,0,3.6-0.5,4.7-1.2
			c0.5-0.2,0.8-0.7,0.8-1.2c0-0.7-0.6-1.3-1.3-1.3c0,0,0,0,0,0c-0.2,0-0.4,0-0.6,0.1c-1,0.5-2.2,0.8-3.4,0.8c-2.4,0-3.8-1.1-4.2-3.3
			h8.4c0.8,0,1.4-0.6,1.5-1.3c0,0,0-0.1,0-0.1C144.2,385.8,140.9,383.7,137.8,383.7L137.8,383.7z M137.8,386.3
			c1.2,0,3.2,0.7,3.5,3.2h-7C134.6,387.3,136.2,386.3,137.8,386.3L137.8,386.3z"/>
		<path fill="#FFFFFF" d="M154.2,383.7h-0.1c-1.4,0-2.6,0.6-3.8,1.9v-0.3c0-0.8-0.7-1.4-1.5-1.5c-0.8,0-1.4,0.7-1.4,1.5v11.1
			c0,0.8,0.7,1.4,1.5,1.4c0.8,0,1.4-0.6,1.4-1.4v-7.7c0.9-1.3,2.2-2.1,3.7-2.1h0.1c0.8,0,1.4-0.5,1.5-1.3c0,0,0-0.1,0-0.1
			C155.7,384.4,155.1,383.7,154.2,383.7C154.3,383.7,154.2,383.7,154.2,383.7L154.2,383.7z"/>
		<path fill="#FFFFFF" d="M194.2,367.7H165c-2.3,0-4.1,1.8-4.1,4.1v26.1l5.7-5.6h27.6c2.3,0,4.1-1.8,4.1-4.1v-16.4
			C198.3,369.5,196.5,367.7,194.2,367.7L194.2,367.7z M169.6,386.1c0,0.6-0.5,1.1-1.1,1.1c-0.6,0-1.1-0.5-1.1-1.1v-11.7
			c0-0.6,0.5-1.1,1.1-1.1c0.6,0,1.1,0.5,1.1,1.1V386.1z M174.7,386.1c0,0.6-0.5,1.1-1.1,1.1c-0.6,0-1.1-0.5-1.1-1.1v-7.7
			c0-0.6,0.5-1.1,1.1-1.1c0.6,0,1.1,0.5,1.1,1.1V386.1z M174.9,374.9c0,0.7-0.5,1.2-1.2,1.2h-0.1c-0.7,0-1.2-0.5-1.2-1.2v-0.1
			c0-0.7,0.5-1.2,1.2-1.2h0.1C174.4,373.6,174.9,374.2,174.9,374.9L174.9,374.9z M182.6,386.9c-0.5,0.2-1.1,0.4-1.6,0.4
			c-1.9,0-2.9-0.9-2.9-2.6v-5.3h-1c-0.3,0-0.6-0.3-0.6-0.6c0,0,0,0,0,0c0-0.2,0.1-0.4,0.3-0.5l2.4-2.4c0.1-0.1,0.3-0.2,0.5-0.2
			c0.3,0,0.6,0.3,0.6,0.6c0,0,0,0,0,0v1.2h1.8c0.5,0,1,0.4,1,1s-0.4,1-1,1h-1.8v5.2c0,0.7,0.4,0.8,0.9,0.8c0.2,0,0.4,0,0.6-0.1
			c0.1,0,0.3-0.1,0.4-0.1c0.5,0,0.9,0.4,0.9,0.9C183.2,386.5,183,386.8,182.6,386.9L182.6,386.9z M189.3,385.2
			c0.8,0,1.6-0.2,2.3-0.5c0.1-0.1,0.3-0.1,0.4-0.1c0.5,0,1,0.4,1,1c0,0,0,0,0,0c0,0.4-0.3,0.7-0.6,0.9c-0.8,0.4-1.6,0.8-3.3,0.8
			c-3.1,0-4.9-1.9-4.9-5c0-3.7,2.5-5,4.6-5c3.1,0,4.6,2.5,4.6,4.8c0,0.6-0.4,1.1-1,1.1c0,0,0,0-0.1,0h-5.8
			C186.8,384.5,187.8,385.2,189.3,385.2L189.3,385.2z"/>
		<path fill="#FFFFFF" d="M188.8,379.2c-1.2,0-2.2,0.9-2.3,2.1h4.7C191.1,380,190,379.1,188.8,379.2z"/>
	</g>
</g>
</svg>
