<?xml version="1.0" encoding="utf-8"?>
<!-- Generator: Adobe Illustrator 24.0.3, SVG Export Plug-In . SVG Version: 6.00 Build 0)  -->
<svg version="1.1" id="Layer_1" xmlns="http://www.w3.org/2000/svg" xmlns:xlink="http://www.w3.org/1999/xlink" x="0px" y="0px"
	 width="120px" height="32.2px" viewBox="0 0 120 32.2" enable-background="new 0 0 120 32.2"
	 xml:space="preserve">
<style type="text/css">
	.st0{fill:#21C16C;}
</style>
<path d="M15.7,18c-2,0-3.6,0.8-4.7,2.4C10.2,18.9,8.7,18,7,18c-1.6-0.1-3.1,0.6-4.1,1.9v-0.3c0-0.8-0.7-1.5-1.5-1.5S0,18.8,0,19.6
	v11.1c0,0.8,0.7,1.4,1.5,1.4c0.7,0,1.3-0.6,1.4-1.4V23c0.7-1.1,1.6-2.3,3.4-2.3c1.7,0,2.4,0.8,2.4,3v7c0,0.8,0.7,1.4,1.5,1.4
	c0.7,0,1.3-0.6,1.4-1.4V23c0.7-1.1,1.6-2.3,3.4-2.3c1.7,0,2.4,0.8,2.4,3v7c0,0.8,0.7,1.4,1.5,1.4c0.7,0,1.3-0.6,1.4-1.4v-7.4
	C20.3,20.7,18.8,18,15.7,18z"/>
<path d="M29.5,18c-1.6,0-3.1,0.3-4.6,1c-0.5,0.2-0.9,0.7-0.9,1.2c0,0.7,0.5,1.2,1.2,1.3h0c0.1,0,0.3,0,0.4-0.1
	c1.1-0.4,2.2-0.6,3.3-0.6c2.2,0,3.2,0.8,3.2,2.9h-2.9c-3.9,0-6.2,1.6-6.2,4.4c0,2.7,2.2,4.1,4.5,4.1c1.7,0.1,3.3-0.5,4.6-1.6v0
	c0,0.8,0.7,1.4,1.5,1.4c0.7,0,1.3-0.6,1.4-1.4v-7.3C35.2,20.7,33.4,18,29.5,18z M28.6,29.6c-1.6,0-2.5-0.6-2.5-1.8
	c0-0.4,0-1.8,3.6-1.8h2.6v1.8C31.5,28.7,30.1,29.6,28.6,29.6z"/>
<path d="M40.7,12.8h0.2c0.9,0,1.6,0.7,1.6,1.6v0.1c0,0.9-0.7,1.6-1.6,1.6h-0.2c-0.9,0-1.6-0.7-1.6-1.6v-0.1
	C39.1,13.6,39.8,12.8,40.7,12.8z"/>
<path d="M40.7,18.1c-0.8,0-1.4,0.6-1.4,1.4v0v11.1c0,0.8,0.7,1.4,1.5,1.4c0.7,0,1.3-0.6,1.4-1.4V19.6C42.2,18.8,41.6,18.1,40.7,18.1
	z"/>
<path d="M48.1,12.4c-0.8,0-1.4,0.6-1.4,1.4v0v16.7c0,0.8,0.7,1.4,1.5,1.4c0.7,0,1.3-0.6,1.4-1.4V13.9C49.5,13.1,48.9,12.4,48.1,12.4
	C48.1,12.4,48.1,12.4,48.1,12.4z"/>
<path d="M59.5,18c-2.1,0-3.8,0.8-4.9,2.2c-1,1.3-1.5,3-1.5,4.9c0,4.4,2.6,7.1,6.9,7.1c2.4,0,3.6-0.5,4.7-1.2
	c0.5-0.2,0.8-0.7,0.8-1.2c0-0.7-0.6-1.3-1.3-1.3h0c-0.2,0-0.4,0-0.6,0.1c-1,0.5-2.2,0.8-3.3,0.8c-2.4,0-3.8-1.1-4.2-3.3h8.4
	c0.8,0,1.4-0.6,1.5-1.3c0,0,0-0.1,0-0.1C65.9,20.1,62.6,18,59.5,18z M59.5,20.5c1.2,0,3.2,0.7,3.5,3.2h-7
	C56.3,21.5,57.9,20.5,59.5,20.5z"/>
<path d="M75.9,18h-0.1c-1.4,0-2.6,0.7-3.8,1.9v-0.3c0-0.8-0.7-1.5-1.5-1.5c-0.8,0-1.5,0.7-1.4,1.5v11.1c0,0.8,0.7,1.4,1.5,1.4
	c0.7,0,1.3-0.6,1.4-1.4v-7.8c0.9-1.3,2.2-2.1,3.7-2.1h0.1c0.8,0.1,1.4-0.5,1.5-1.3c0,0,0-0.1,0-0.1C77.4,18.7,76.7,18,75.9,18
	C76,18,75.9,18,75.9,18z"/>
<g>
	<path class="st0" d="M115.9,2H86.7c-2.3,0-4.1,1.8-4.1,4.1v26.1l5.7-5.6h27.7c2.3,0,4.1-1.8,4.1-4.1V6.1C120,3.8,118.2,2,115.9,2z
		 M91.3,20.4c0,0.6-0.5,1.1-1.1,1.1c-0.6,0-1.1-0.5-1.1-1.1V8.7c0-0.6,0.5-1.1,1.1-1.1c0.6,0,1.1,0.5,1.1,1.1V20.4z M96.4,20.4
		c0,0.6-0.5,1.1-1.1,1.1s-1.1-0.5-1.1-1.1v-7.7c0-0.6,0.5-1.1,1.1-1.1s1.1,0.5,1.1,1.1V20.4z M96.6,9.2c0,0.7-0.5,1.2-1.2,1.2h-0.1
		c-0.7,0-1.2-0.5-1.2-1.2V9.1c0-0.7,0.5-1.2,1.2-1.2h0.1C96,7.9,96.6,8.4,96.6,9.2L96.6,9.2z M104.3,21.2c-0.5,0.2-1,0.4-1.6,0.4
		c-1.9,0-2.9-0.9-2.9-2.6v-5.3h-1c-0.3,0-0.6-0.2-0.6-0.6v0c0-0.2,0.1-0.4,0.3-0.5l2.4-2.4c0.1-0.1,0.3-0.2,0.5-0.2
		c0.3,0,0.6,0.3,0.6,0.6v0v1.2h1.8c0.5,0,1,0.4,1,1c0,0.5-0.4,1-1,1H102v5.2c0,0.7,0.4,0.8,0.9,0.8c0.2,0,0.4,0,0.6-0.1
		c0.1-0.1,0.3-0.1,0.4-0.1c0.5,0,0.9,0.4,0.9,0.9C104.9,20.7,104.6,21.1,104.3,21.2L104.3,21.2z M111,19.5c0.8,0,1.6-0.2,2.3-0.5
		c0.1-0.1,0.3-0.1,0.4-0.1c0.5,0,1,0.4,1,1v0c0,0.4-0.2,0.7-0.6,0.9c-0.8,0.4-1.6,0.8-3.3,0.8c-3.1,0-4.9-1.9-4.9-5
		c0-3.7,2.5-5,4.6-5c3.1,0,4.6,2.5,4.6,4.8c0,0.6-0.4,1.1-1,1.1c0,0-0.1,0-0.1,0h-5.8C108.5,18.8,109.5,19.5,111,19.5z"/>
	<path class="st0" d="M110.5,13.4c-1.2,0-2.2,0.9-2.3,2.1h4.7C112.8,14.3,111.7,13.4,110.5,13.4z"/>
</g>
</svg>
